<?xml version="1.0" encoding="utf-8"?>
<!-- Generator: Adobe Illustrator 17.0.0, SVG Export Plug-In . SVG Version: 6.00 Build 0)  -->
<!DOCTYPE svg PUBLIC "-//W3C//DTD SVG 1.1//EN" "http://www.w3.org/Graphics/SVG/1.1/DTD/svg11.dtd">
<svg version="1.1" id="Calque_1" xmlns="http://www.w3.org/2000/svg" xmlns:xlink="http://www.w3.org/1999/xlink" x="0px" y="0px"
	 width="289.639px" height="84.619px" viewBox="0 0 289.639 84.619" enable-background="new 0 0 289.639 84.619"
	 xml:space="preserve">
<g opacity="0.08">
	<path fill="#202223" d="M187.116,0.013c0.346,0.346-6.451,11.69-12.679,18.887s-49.946,50.084-49.946,50.084
		s2.076,7.336,1.384,9.135c-0.692,1.799-7.602,6.499-7.602,6.499l-2.63-8.862l-4.27-4.27l-8.862-2.63c0,0,4.7-6.91,6.499-7.602
		c1.799-0.692,9.135,1.384,9.135,1.384s42.887-43.717,50.084-49.946S186.77-0.333,187.116,0.013z"/>
	<path fill="#202223" d="M102.523,0.013c0.346-0.346,11.69,6.451,18.887,12.679s50.084,49.946,50.084,49.946
		s7.336-2.076,9.135-1.384c1.799,0.692,6.499,7.602,6.499,7.602l-8.862,2.63l-4.27,4.27l-2.63,8.862c0,0-6.91-4.7-7.602-6.499
		c-0.692-1.799,1.384-9.135,1.384-9.135S121.431,26.097,115.202,18.9S102.177,0.359,102.523,0.013z"/>
</g>
<g>
	<path fill="#202223" d="M13.463,33.119c0,0.9-0.02,0.94-0.26,1.08c-1.28,0.68-3.081,0.9-4.241,0.9c-1.521,0-4.361-0.2-6.582-2.14
		C1.16,31.899,0,29.759,0,27.258c0-3.201,1.561-5.461,3.341-6.582c1.8-1.12,3.781-1.26,5.321-1.26c1.261,0,2.681,0.26,3.061,0.34
		c0.42,0.1,1.12,0.18,1.62,0.2c0.2,0.02,0.24,0.1,0.24,0.18c0,0.28-0.14,0.84-0.14,2.84c0,0.32-0.04,0.42-0.18,0.42
		c-0.1,0-0.12-0.12-0.14-0.3c-0.02-0.28-0.12-0.84-0.42-1.32c-0.5-0.76-2.121-1.62-4.701-1.62c-1.26,0-2.76,0.12-4.281,1.32
		c-1.16,0.92-1.98,2.74-1.98,5.081c0,2.82,1.42,4.861,2.121,5.541c1.58,1.541,3.401,2.141,5.241,2.141c0.72,0,1.76-0.12,2.28-0.42
		c0.26-0.14,0.4-0.36,0.4-0.7v-3.401c0-1.621-0.1-1.84-0.9-2.061c-0.16-0.04-0.5-0.06-0.68-0.06c-0.08,0-0.16-0.04-0.16-0.12
		c0-0.12,0.1-0.16,0.32-0.16c0.9,0,2.16,0.06,2.26,0.06s1.36-0.06,1.96-0.06c0.22,0,0.32,0.04,0.32,0.16c0,0.08-0.08,0.12-0.16,0.12
		c-0.14,0-0.26,0.02-0.5,0.06c-0.54,0.1-0.7,0.44-0.74,1.14c-0.04,0.64-0.04,1.24-0.04,2.081V33.119z"/>
	<path fill="#202223" d="M27.44,28.918c-0.1,0-0.16,0.06-0.2,0.16l-1.2,3.541c-0.18,0.5-0.28,0.98-0.28,1.34
		c0,0.4,0.38,0.58,0.72,0.58c0.06,0,0.12,0,0.18,0c0.2,0,0.26,0.04,0.26,0.12c0,0.12-0.18,0.16-0.36,0.16
		c-0.48,0-1.28-0.06-1.5-0.06c-0.22,0-1.32,0.06-2.261,0.06c-0.26,0-0.38-0.04-0.38-0.16c0-0.08,0.1-0.12,0.28-0.12
		c0.14,0,0.32-0.02,0.48-0.04c0.92-0.12,1.32-0.88,1.68-1.88l4.541-12.422c0.24-0.66,0.32-0.78,0.44-0.78s0.2,0.1,0.44,0.72
		c0.3,0.76,3.44,9.022,4.661,12.062c0.72,1.78,1.3,2.101,1.721,2.221c0.3,0.1,0.62,0.12,0.78,0.12c0.12,0,0.22,0.02,0.22,0.12
		c0,0.12-0.18,0.16-0.4,0.16c-0.3,0-1.761,0-3.141-0.04c-0.38-0.02-0.6-0.02-0.6-0.14c0-0.08,0.06-0.12,0.14-0.14
		c0.12-0.04,0.24-0.22,0.12-0.54l-1.86-4.921c-0.04-0.08-0.08-0.12-0.18-0.12H27.44z M31.481,28.198c0.1,0,0.1-0.06,0.08-0.14
		l-1.9-5.401c-0.1-0.3-0.2-0.3-0.3,0l-1.76,5.401c-0.04,0.1,0,0.14,0.06,0.14H31.481z"/>
	<path fill="#202223" d="M62.903,32.239c0.08,0.72,0.22,1.84,1.081,2.121c0.58,0.18,1.04,0.18,1.24,0.18c0.1,0,0.22,0.02,0.22,0.12
		c0,0.12-0.06,0.16-0.3,0.16c-0.44,0-2.721-0.06-3.461-0.12c-0.46-0.04-0.56-0.1-0.56-0.2c0-0.08,0.04-0.1,0.14-0.14
		c0.14-0.06,0.12-0.36,0.08-0.72l-0.96-10.442L55.422,33.72c-0.42,0.88-0.48,1.06-0.66,1.06c-0.14,0-0.24-0.2-0.62-0.92
		c-0.52-0.98-2.241-4.441-2.34-4.641c-0.18-0.36-2.481-5.301-2.701-5.841l-0.82,9.422c-0.02,0.32-0.04,0.6-0.04,0.94
		c0,0.5,0.24,0.66,0.54,0.72c0.34,0.08,0.6,0.08,0.72,0.08s0.2,0.04,0.2,0.1c0,0.14-0.1,0.18-0.3,0.18c-0.74,0-1.76-0.06-1.92-0.06
		c-0.18,0-1.14,0.06-1.68,0.06c-0.2,0-0.34-0.02-0.34-0.16c0-0.08,0.1-0.12,0.2-0.12c0.16,0,0.3,0,0.6-0.06
		c0.66-0.12,0.7-0.84,0.8-1.66l1.44-13.003c0.02-0.22,0.1-0.4,0.22-0.4c0.12,0,0.2,0.08,0.3,0.3l6.121,12.583l5.881-12.563
		c0.08-0.18,0.16-0.32,0.3-0.32c0.14,0,0.2,0.16,0.24,0.54L62.903,32.239z"/>
	<path fill="#202223" d="M76.02,25.497c0-3.121,0-3.681-0.04-4.321c-0.04-0.68-0.2-1-0.86-1.14c-0.14-0.04-0.4-0.04-0.58-0.06
		c-0.14-0.02-0.26-0.04-0.26-0.12c0-0.12,0.1-0.16,0.32-0.16c0.46,0,1,0,2.26,0.06c0.14,0,4.121,0,4.581-0.02
		c0.44-0.02,0.8-0.06,0.92-0.12c0.12-0.06,0.16-0.08,0.22-0.08s0.08,0.08,0.08,0.18c0,0.14-0.12,0.38-0.16,0.94
		c-0.02,0.3-0.04,0.68-0.08,1.2c-0.02,0.2-0.08,0.34-0.16,0.34c-0.12,0-0.16-0.1-0.16-0.26c0-0.26-0.04-0.5-0.1-0.66
		c-0.14-0.46-0.56-0.66-1.44-0.74c-0.34-0.04-2.521-0.06-2.74-0.06c-0.08,0-0.12,0.06-0.12,0.2v5.521c0,0.14,0.02,0.2,0.12,0.2
		c0.26,0,2.72,0,3.181-0.04c0.54-0.04,0.8-0.1,1-0.34c0.1-0.12,0.16-0.2,0.24-0.2c0.06,0,0.1,0.04,0.1,0.16s-0.1,0.46-0.16,1.12
		c-0.06,0.62-0.06,1.08-0.08,1.36c-0.02,0.2-0.06,0.3-0.14,0.3c-0.12,0-0.14-0.16-0.14-0.32c0-0.18-0.02-0.38-0.08-0.56
		c-0.08-0.3-0.32-0.58-1.041-0.66c-0.54-0.06-2.521-0.1-2.86-0.1c-0.1,0-0.14,0.06-0.14,0.14v1.76c0,0.68-0.02,3,0,3.421
		c0.04,0.82,0.16,1.26,0.66,1.46c0.34,0.14,0.88,0.18,1.66,0.18c0.6,0,1.26-0.02,1.8-0.18c0.64-0.2,0.86-0.62,1.021-1.48
		c0.04-0.22,0.08-0.3,0.18-0.3c0.12,0,0.12,0.16,0.12,0.3c0,0.16-0.16,1.52-0.26,1.94c-0.14,0.52-0.3,0.52-1.081,0.52
		c-1.48,0-2.14-0.04-2.92-0.06c-0.8-0.02-1.72-0.06-2.5-0.06c-0.48,0-0.96,0.08-1.48,0.06c-0.22,0-0.32-0.04-0.32-0.16
		c0-0.06,0.1-0.1,0.22-0.12c0.2-0.02,0.32-0.02,0.46-0.06c0.42-0.1,0.68-0.38,0.72-1.88c0.02-0.78,0.04-1.8,0.04-3.581V25.497z"/>
	<path fill="#202223" d="M106.439,27.238c0-3.241,2.36-7.822,7.882-7.822c4.501,0,7.861,2.841,7.861,7.501
		c0,4.481-3.161,8.182-7.981,8.182C108.719,35.099,106.439,30.839,106.439,27.238z M120.262,27.478c0-4.801-2.92-7.381-6.081-7.381
		c-3.341,0-5.841,2.2-5.841,6.582c0,4.661,2.801,7.662,6.401,7.662C116.541,34.34,120.262,33.299,120.262,27.478z"/>
	<path fill="#202223" d="M133.719,25.497c0-3.121,0-3.681-0.04-4.321c-0.04-0.68-0.2-1-0.86-1.14c-0.12-0.02-0.32-0.02-0.5-0.04
		c-0.18-0.02-0.34-0.04-0.34-0.14c0-0.12,0.1-0.16,0.32-0.16c0.78,0,1.54,0.06,2.26,0.06c0.4,0,4.461,0,4.921-0.02
		c0.46-0.02,0.82-0.02,0.98-0.12c0.06-0.04,0.14-0.08,0.18-0.08c0.08,0,0.12,0.08,0.12,0.18c0,0.1-0.08,0.38-0.12,0.621
		c-0.08,0.58-0.08,0.9-0.12,1.46c0,0.24-0.1,0.4-0.18,0.4c-0.1,0-0.12-0.08-0.14-0.26c-0.02-0.28-0.1-0.76-0.38-1
		c-0.24-0.2-0.6-0.36-1.18-0.38c-1.021-0.02-2.041-0.04-3.061-0.06c-0.12,0-0.18,0.06-0.18,0.22v5.521c0,0.12,0.02,0.18,0.14,0.18
		c0.82,0,1.96,0,2.78-0.02c1.061-0.02,1.32-0.04,1.601-0.38c0.1-0.12,0.14-0.2,0.22-0.2c0.08,0,0.1,0.06,0.1,0.16
		c0,0.12-0.1,0.46-0.16,1.12c-0.06,0.6-0.06,1.08-0.08,1.38c-0.02,0.22-0.04,0.34-0.14,0.34c-0.12,0-0.14-0.14-0.16-0.34
		c-0.04-0.44-0.1-1.14-1.14-1.28c-0.5-0.06-2.681-0.06-3.021-0.06c-0.1,0-0.14,0.04-0.14,0.18v1.7c0,1.7,0,5.121,0.06,6.041
		c0.06,0.9,0.28,1.34,0.82,1.4c0.26,0.04,0.601,0.06,0.82,0.08c0.18,0.02,0.24,0.06,0.24,0.14c0,0.1-0.1,0.14-0.32,0.14
		c-1.12,0-2.36-0.06-2.46-0.06h-0.18c-0.4,0.02-1.3,0.06-1.78,0.06c-0.22,0-0.32-0.04-0.32-0.16c0-0.06,0.04-0.1,0.22-0.12
		c0.2-0.02,0.38-0.04,0.521-0.08c0.42-0.12,0.56-0.42,0.62-1.3c0.06-0.86,0.08-4.261,0.08-6.141V25.497z"/>
	<path fill="#202223" d="M166.059,25.497c0-3.121,0-3.681-0.04-4.321c-0.039-0.68-0.14-1-0.8-1.14c-0.16-0.04-0.5-0.06-0.68-0.06
		c-0.141,0-0.221-0.04-0.221-0.12c0-0.12,0.101-0.16,0.32-0.16c0.9,0,2.16,0.06,2.261,0.06c0.24,0,1.5-0.06,2.7-0.06
		c1.98,0,5.642-0.18,8.021,2.28c1,1.04,1.94,2.701,1.94,5.081c0,2.521-1.04,4.461-2.16,5.641c-0.86,0.9-2.661,2.301-6.062,2.301
		c-0.86,0-1.92-0.06-2.78-0.12c-0.88-0.06-1.561-0.12-1.66-0.12c-0.04,0-0.38,0-0.801,0.02c-0.399,0-0.859,0.04-1.16,0.04
		c-0.22,0-0.319-0.04-0.319-0.16c0-0.06,0.04-0.12,0.199-0.12c0.221-0.02,0.381-0.04,0.561-0.08c0.4-0.08,0.5-0.52,0.58-1.1
		c0.1-0.84,0.1-2.42,0.1-4.341V25.497z M167.739,27.658c0,2.121,0.021,3.961,0.04,4.341c0.021,0.5,0.061,1.3,0.22,1.521
		c0.261,0.38,1.041,0.8,3.401,0.8c1.86,0,3.58-0.68,4.761-1.86c1.04-1.021,1.601-2.941,1.601-4.781c0-2.541-1.101-4.181-1.921-5.041
		c-1.88-1.98-4.161-2.261-6.541-2.261c-0.4,0-1.141,0.06-1.301,0.14c-0.18,0.08-0.239,0.18-0.239,0.4
		c-0.021,0.68-0.021,2.72-0.021,4.261V27.658z"/>
	<path fill="#202223" d="M191.099,25.497c0-3.121,0-3.681-0.04-4.321c-0.04-0.68-0.2-1-0.86-1.14c-0.159-0.04-0.5-0.06-0.68-0.06
		c-0.08,0-0.16-0.04-0.16-0.12c0-0.12,0.101-0.16,0.32-0.16c0.9,0,2.16,0.06,2.261,0.06c0.22,0,1.74-0.06,2.36-0.06
		c1.26,0,2.601,0.12,3.66,0.88c0.5,0.36,1.381,1.34,1.381,2.721c0,1.48-0.62,2.96-2.421,4.621c1.641,2.1,3.001,3.881,4.161,5.121
		c1.08,1.14,1.94,1.36,2.44,1.44c0.38,0.06,0.66,0.06,0.78,0.06c0.1,0,0.18,0.06,0.18,0.12c0,0.12-0.12,0.16-0.479,0.16h-1.421
		c-1.12,0-1.62-0.1-2.141-0.38c-0.859-0.46-1.56-1.44-2.7-2.941c-0.84-1.1-1.78-2.44-2.181-2.96c-0.08-0.08-0.14-0.12-0.26-0.12
		l-2.461-0.04c-0.1,0-0.14,0.06-0.14,0.16v0.48c0,1.92,0,3.5,0.1,4.341c0.061,0.58,0.181,1.021,0.78,1.1
		c0.28,0.04,0.721,0.08,0.9,0.08c0.12,0,0.16,0.06,0.16,0.12c0,0.1-0.1,0.16-0.32,0.16c-1.1,0-2.36-0.06-2.46-0.06
		c-0.021,0-1.28,0.06-1.881,0.06c-0.22,0-0.32-0.04-0.32-0.16c0-0.06,0.04-0.12,0.16-0.12c0.181,0,0.42-0.04,0.601-0.08
		c0.399-0.08,0.5-0.52,0.58-1.1c0.1-0.84,0.1-2.42,0.1-4.341V25.497z M192.699,27.238c0,0.1,0.04,0.18,0.14,0.24
		c0.301,0.18,1.221,0.32,2.101,0.32c0.48,0,1.04-0.06,1.501-0.38c0.7-0.48,1.22-1.56,1.22-3.081c0-2.5-1.32-4-3.461-4
		c-0.6,0-1.14,0.06-1.34,0.12c-0.101,0.04-0.16,0.12-0.16,0.24V27.238z"/>
	<path fill="#202223" d="M210.998,27.238c0-3.241,2.36-7.822,7.882-7.822c4.501,0,7.861,2.841,7.861,7.501
		c0,4.481-3.16,8.182-7.981,8.182C213.278,35.099,210.998,30.839,210.998,27.238z M224.821,27.478c0-4.801-2.921-7.381-6.082-7.381
		c-3.34,0-5.841,2.2-5.841,6.582c0,4.661,2.801,7.662,6.401,7.662C221.101,34.34,224.821,33.299,224.821,27.478z"/>
	<path fill="#202223" d="M237.718,28.918c0-7.222,0.04-4.621,0.021-8.502c0-0.78,0.06-1,0.22-1s0.5,0.44,0.7,0.64
		c0.3,0.34,3.28,3.561,6.361,6.861c1.98,2.121,4.161,4.561,4.801,5.221l-0.22-10.162c-0.021-1.3-0.16-1.74-0.78-1.9
		c-0.36-0.08-0.68-0.1-0.86-0.1c-0.22,0-0.28-0.06-0.28-0.14c0-0.12,0.16-0.14,0.4-0.14c0.9,0,1.86,0.06,2.081,0.06
		c0.22,0,0.88-0.06,1.7-0.06c0.22,0,0.359,0.02,0.359,0.14c0,0.08-0.08,0.12-0.22,0.14c-0.16,0.02-0.28,0.04-0.521,0.08
		c-0.56,0.12-0.699,0.42-0.699,1.8l-0.04,11.683c0,1.32-0.04,1.42-0.181,1.42c-0.16,0-0.399-0.22-1.46-1.28
		c-0.22-0.2-3.101-3.141-5.222-5.421c-2.32-2.5-4.58-5.021-5.221-5.741l0.26,9.582c0.04,1.641,0.24,2.161,0.78,2.321
		c0.38,0.1,0.82,0.12,1,0.12c0.101,0,0.16,0.04,0.16,0.12c0,0.12-0.12,0.16-0.359,0.16c-1.141,0-1.94-0.06-2.121-0.06
		c-0.18,0-1.02,0.06-1.92,0.06c-0.2,0-0.32-0.02-0.32-0.16c0-0.08,0.06-0.12,0.16-0.12c0.16,0,0.52-0.02,0.82-0.12
		c0.5-0.14,0.6-0.72,0.6-2.541V28.918z"/>
	<path fill="#202223" d="M264.318,25.497c0-3.121,0-3.681-0.04-4.321c-0.04-0.68-0.2-1-0.86-1.14c-0.14-0.04-0.399-0.04-0.58-0.06
		c-0.14-0.02-0.26-0.04-0.26-0.12c0-0.12,0.1-0.16,0.32-0.16c0.46,0,1,0,2.261,0.06c0.14,0,4.12,0,4.58-0.02
		c0.44-0.02,0.801-0.06,0.921-0.12s0.16-0.08,0.22-0.08c0.061,0,0.08,0.08,0.08,0.18c0,0.14-0.12,0.38-0.16,0.94
		c-0.02,0.3-0.04,0.68-0.08,1.2c-0.02,0.2-0.08,0.34-0.16,0.34c-0.12,0-0.16-0.1-0.16-0.26c0-0.26-0.04-0.5-0.1-0.66
		c-0.14-0.46-0.561-0.66-1.44-0.74c-0.34-0.04-2.521-0.06-2.74-0.06c-0.08,0-0.12,0.06-0.12,0.2v5.521c0,0.14,0.02,0.2,0.12,0.2
		c0.26,0,2.721,0,3.181-0.04c0.54-0.04,0.8-0.1,1-0.34c0.1-0.12,0.16-0.2,0.24-0.2c0.06,0,0.1,0.04,0.1,0.16s-0.1,0.46-0.16,1.12
		c-0.06,0.62-0.06,1.08-0.08,1.36c-0.02,0.2-0.06,0.3-0.14,0.3c-0.12,0-0.14-0.16-0.14-0.32c0-0.18-0.021-0.38-0.08-0.56
		c-0.08-0.3-0.32-0.58-1.04-0.66c-0.541-0.06-2.521-0.1-2.861-0.1c-0.1,0-0.14,0.06-0.14,0.14v1.76c0,0.68-0.021,3,0,3.421
		c0.04,0.82,0.16,1.26,0.66,1.46c0.34,0.14,0.88,0.18,1.66,0.18c0.601,0,1.261-0.02,1.801-0.18c0.64-0.2,0.86-0.62,1.02-1.48
		c0.04-0.22,0.08-0.3,0.181-0.3c0.12,0,0.12,0.16,0.12,0.3c0,0.16-0.16,1.52-0.261,1.94c-0.14,0.52-0.3,0.52-1.08,0.52
		c-1.48,0-2.141-0.04-2.921-0.06c-0.8-0.02-1.72-0.06-2.5-0.06c-0.48,0-0.96,0.08-1.48,0.06c-0.22,0-0.32-0.04-0.32-0.16
		c0-0.06,0.101-0.1,0.221-0.12c0.2-0.02,0.319-0.02,0.46-0.06c0.42-0.1,0.68-0.38,0.72-1.88c0.021-0.78,0.04-1.8,0.04-3.581V25.497z
		"/>
	<path fill="#202223" d="M282.237,34.559c-0.28-0.14-0.3-0.22-0.3-0.76c0-1,0.08-1.8,0.1-2.12c0.021-0.22,0.061-0.32,0.16-0.32
		c0.12,0,0.141,0.06,0.141,0.22c0,0.18,0,0.46,0.06,0.74c0.3,1.48,1.62,2.041,2.961,2.041c1.92,0,2.86-1.38,2.86-2.661
		c0-1.38-0.58-2.181-2.301-3.601l-0.899-0.74c-2.121-1.741-2.601-2.981-2.601-4.341c0-2.14,1.6-3.601,4.141-3.601
		c0.78,0,1.36,0.08,1.86,0.2c0.38,0.08,0.54,0.1,0.7,0.1s0.2,0.04,0.2,0.14s-0.08,0.76-0.08,2.121c0,0.32-0.04,0.46-0.141,0.46
		c-0.12,0-0.14-0.1-0.16-0.26c-0.02-0.24-0.14-0.78-0.26-1c-0.12-0.22-0.66-1.06-2.5-1.06c-1.381,0-2.461,0.86-2.461,2.32
		c0,1.14,0.521,1.86,2.44,3.361l0.561,0.44c2.36,1.86,2.92,3.101,2.92,4.701c0,0.82-0.319,2.34-1.7,3.321
		c-0.86,0.6-1.94,0.84-3.021,0.84C283.978,35.099,283.058,34.96,282.237,34.559z"/>
	<path fill="#202223" d="M219.565,34.55c-0.358-0.505-0.287-13.479,0.021-14.202c0.309-0.722-1.732-0.722-1.424,0
		c0.309,0.722,0.358,13.608,0,14.113C217.804,34.966,219.923,35.054,219.565,34.55z"/>
	<path fill="#202223" d="M115.006,34.381c-0.358-0.505-0.287-13.479,0.021-14.202c0.309-0.722-1.732-0.722-1.424,0
		c0.309,0.722,0.358,13.608,0,14.113C113.245,34.798,115.364,34.886,115.006,34.381z"/>
</g>
<g>
	<path fill="#777C7B" d="M28.064,58.174c0-3.608,0.02-2.309,0.01-4.248c0-0.39,0.03-0.5,0.11-0.5c0.08,0,0.25,0.22,0.35,0.32
		c0.15,0.17,1.639,1.779,3.178,3.428c0.989,1.06,2.079,2.279,2.399,2.609l-0.11-5.078c-0.01-0.649-0.08-0.869-0.39-0.949
		c-0.18-0.04-0.34-0.05-0.43-0.05c-0.11,0-0.14-0.03-0.14-0.07c0-0.06,0.08-0.07,0.2-0.07c0.45,0,0.929,0.03,1.04,0.03
		c0.11,0,0.439-0.03,0.849-0.03c0.11,0,0.18,0.01,0.18,0.07c0,0.04-0.04,0.06-0.11,0.07c-0.08,0.01-0.14,0.02-0.26,0.04
		c-0.28,0.06-0.35,0.21-0.35,0.9l-0.02,5.836c0,0.66-0.02,0.71-0.09,0.71c-0.08,0-0.2-0.11-0.729-0.64
		c-0.11-0.1-1.549-1.569-2.609-2.708c-1.159-1.25-2.289-2.509-2.608-2.869l0.13,4.788c0.02,0.819,0.12,1.079,0.39,1.159
		c0.19,0.05,0.41,0.06,0.5,0.06c0.05,0,0.08,0.02,0.08,0.06c0,0.06-0.06,0.08-0.18,0.08c-0.57,0-0.969-0.03-1.06-0.03
		c-0.09,0-0.509,0.03-0.959,0.03c-0.1,0-0.16-0.01-0.16-0.08c0-0.04,0.03-0.06,0.08-0.06c0.08,0,0.26-0.01,0.41-0.06
		c0.25-0.07,0.3-0.36,0.3-1.269V58.174z"/>
	<path fill="#777C7B" d="M41.454,58.344c0,1.219,0.229,1.739,0.609,2.079c0.43,0.379,0.91,0.459,1.319,0.459
		c0.52,0,0.99-0.14,1.369-0.58c0.4-0.46,0.49-1.219,0.49-2.089v-1.06c0-1.309,0-1.539-0.02-1.809c-0.02-0.29-0.05-0.439-0.37-0.49
		c-0.07-0.01-0.19-0.02-0.28-0.02c-0.06,0-0.1-0.03-0.1-0.06c0-0.06,0.05-0.08,0.14-0.08c0.43,0,0.929,0.03,0.969,0.03
		c0.05,0,0.48-0.03,0.76-0.03c0.1,0,0.14,0.02,0.14,0.07c0,0.04-0.04,0.07-0.1,0.07s-0.08,0-0.18,0.01
		c-0.28,0.03-0.32,0.21-0.34,0.5c-0.01,0.27-0.01,0.5-0.01,1.809v0.89c0,0.899-0.1,1.979-0.81,2.588c-0.65,0.55-1.29,0.6-1.829,0.6
		c-0.28,0-1.219,0-1.869-0.6c-0.43-0.399-0.74-0.999-0.74-2.239v-1.239c0-1.319,0-1.549-0.03-1.819c-0.01-0.27-0.06-0.44-0.37-0.48
		c-0.06-0.01-0.18-0.02-0.26-0.02c-0.07,0-0.11-0.03-0.11-0.06c0-0.06,0.04-0.08,0.15-0.08c0.43,0,0.969,0.03,1.039,0.03
		c0.08,0,0.67-0.03,0.94-0.03c0.11,0,0.14,0.02,0.14,0.07c0,0.05-0.07,0.07-0.12,0.07c-0.06,0-0.14,0.01-0.22,0.02
		c-0.24,0.03-0.28,0.2-0.3,0.48c-0.01,0.27-0.01,0.5-0.01,1.819V58.344z"/>
	<path fill="#777C7B" d="M51.974,60.323c-0.85-0.74-1.069-1.719-1.069-2.549c0-0.56,0.22-1.549,1.009-2.309
		c0.54-0.52,1.349-0.89,2.688-0.89c0.46,0,0.83,0.04,1.319,0.11c0.32,0.05,0.64,0.1,0.879,0.11c0.08,0,0.09,0.05,0.09,0.1
		c0,0.08-0.03,0.17-0.05,0.49c-0.01,0.28-0.01,0.8-0.02,0.919c-0.01,0.14-0.03,0.19-0.08,0.19c-0.07,0-0.08-0.06-0.08-0.19
		c0-0.29-0.14-0.679-0.39-0.869c-0.3-0.26-1-0.51-1.769-0.51c-1.11,0-1.619,0.31-1.919,0.58c-0.65,0.59-0.8,1.309-0.8,2.189
		c0,1.659,1.349,3.118,3.108,3.118c0.68,0,1.179-0.07,1.529-0.41c0.18-0.19,0.28-0.44,0.33-0.72c0.02-0.1,0.05-0.15,0.11-0.15
		c0.05,0,0.05,0.07,0.05,0.14c0,0.08-0.13,0.89-0.2,1.109c-0.06,0.16-0.09,0.19-0.23,0.25c-0.35,0.15-1.019,0.2-1.579,0.2
		C53.583,61.233,52.683,60.933,51.974,60.323z"/>
	<path fill="#777C7B" d="M63.223,58.674c0,1.149,0.04,1.729,0.21,1.889c0.16,0.14,0.36,0.2,1.049,0.2c0.44,0,0.84,0,1.06-0.28
		c0.1-0.15,0.17-0.35,0.19-0.5c0.01-0.08,0.03-0.12,0.08-0.12c0.04,0,0.06,0.03,0.06,0.13c0,0.1-0.06,0.67-0.12,0.9
		c-0.06,0.2-0.05,0.25-0.53,0.25c-0.68,0-1.429-0.05-2.429-0.05c-0.33,0-0.53,0.03-0.879,0.03c-0.1,0-0.16-0.02-0.16-0.08
		c0-0.03,0.03-0.06,0.11-0.06c0.08,0,0.16,0,0.24-0.02c0.17-0.03,0.229-0.23,0.26-0.47c0.06-0.38,0.04-1.069,0.04-1.839v-1.5
		c0-1.319,0-1.539-0.02-1.809c-0.02-0.28-0.06-0.459-0.4-0.5c-0.06-0.01-0.17-0.01-0.25-0.01c-0.07,0-0.11-0.03-0.11-0.07
		c0-0.05,0.05-0.07,0.15-0.07c0.42,0,1.02,0.03,1.04,0.03c0.14,0,0.75-0.03,1.029-0.03c0.1,0,0.13,0.03,0.13,0.07
		s-0.05,0.07-0.11,0.07c-0.07,0-0.17,0.01-0.27,0.02c-0.28,0.04-0.34,0.2-0.359,0.49c-0.02,0.27-0.01,0.49-0.01,1.809V58.674z"/>
	<path fill="#777C7B" d="M71.144,57.155c0-1.309,0-1.549-0.02-1.819c-0.02-0.28-0.09-0.42-0.38-0.48c-0.06-0.01-0.16-0.02-0.24-0.02
		c-0.07,0-0.13-0.03-0.13-0.06c0-0.06,0.05-0.08,0.15-0.08c0.2,0,0.47,0.02,1.029,0.03c0.05,0,1.829,0,2.029-0.01
		c0.2-0.01,0.31-0.02,0.39-0.05c0.06-0.02,0.07-0.03,0.11-0.03c0.02,0,0.04,0.02,0.04,0.07c0,0.06-0.06,0.2-0.08,0.45
		c-0.01,0.17-0.02,0.33-0.03,0.52c0,0.09-0.02,0.15-0.07,0.15s-0.07-0.04-0.07-0.11c-0.01-0.15-0.04-0.25-0.07-0.32
		c-0.06-0.2-0.15-0.27-0.649-0.3c-0.13-0.01-1.12-0.02-1.14-0.02c-0.03,0-0.05,0.02-0.05,0.08v2.269c0,0.06,0.01,0.1,0.06,0.1
		c0.12,0,1.139-0.01,1.349-0.03c0.23-0.01,0.38-0.04,0.46-0.15c0.04-0.06,0.07-0.08,0.11-0.08c0.02,0,0.04,0.01,0.04,0.06
		c0,0.05-0.04,0.24-0.07,0.53c-0.03,0.28-0.03,0.48-0.04,0.61c-0.01,0.08-0.03,0.11-0.07,0.11c-0.05,0-0.06-0.06-0.06-0.13
		c0-0.06-0.01-0.16-0.03-0.24c-0.04-0.13-0.1-0.27-0.479-0.3c-0.23-0.02-1.04-0.04-1.2-0.04c-0.06,0-0.07,0.03-0.07,0.07v0.729
		c0,0.31-0.01,1.189,0,1.359c0.02,0.37,0.07,0.56,0.28,0.649c0.15,0.07,0.39,0.09,0.729,0.09c0.19,0,0.51,0.01,0.76-0.06
		c0.3-0.09,0.37-0.29,0.45-0.66c0.02-0.1,0.05-0.14,0.09-0.14c0.06,0,0.06,0.09,0.06,0.15c0,0.07-0.08,0.7-0.11,0.87
		c-0.04,0.2-0.11,0.22-0.44,0.22c-0.66,0-0.939-0.02-1.289-0.02c-0.35-0.01-0.81-0.03-1.179-0.03c-0.23,0-0.42,0.03-0.66,0.03
		c-0.09,0-0.14-0.02-0.14-0.07c0-0.04,0.04-0.07,0.09-0.07c0.06,0,0.13-0.01,0.2-0.03c0.18-0.04,0.3-0.17,0.32-0.79
		c0.01-0.34,0.02-0.75,0.02-1.509V57.155z"/>
	<path fill="#777C7B" d="M80.723,58.684c-0.05,0-0.08,0.03-0.1,0.08l-0.44,1.249c-0.1,0.28-0.17,0.55-0.17,0.71
		c0,0.18,0.11,0.26,0.33,0.26c0.03,0,0.04,0,0.07,0c0.09,0,0.12,0.03,0.12,0.07c0,0.05-0.08,0.07-0.15,0.07
		c-0.22,0-0.68-0.03-0.79-0.03c-0.1,0-0.54,0.03-0.959,0.03c-0.11,0-0.16-0.02-0.16-0.07c0-0.04,0.04-0.07,0.12-0.07
		c0.05,0,0.14,0,0.2-0.01c0.43-0.04,0.6-0.37,0.77-0.79l1.999-5.267c0.11-0.29,0.14-0.34,0.21-0.34c0.05,0,0.09,0.04,0.2,0.32
		c0.14,0.33,1.499,3.818,2.029,5.067c0.33,0.79,0.62,0.919,0.76,0.97c0.13,0.05,0.27,0.05,0.34,0.05c0.07,0,0.12,0.02,0.12,0.07
		s-0.04,0.07-0.15,0.07c-0.1,0-0.85,0-1.519-0.02c-0.19-0.01-0.25-0.02-0.25-0.07c0-0.03,0.03-0.06,0.07-0.07
		c0.04-0.02,0.1-0.07,0.04-0.22l-0.79-2.009c-0.02-0.03-0.04-0.05-0.08-0.05H80.723z M82.422,58.334c0.04,0,0.04-0.03,0.03-0.06
		l-0.79-2.209c-0.05-0.14-0.06-0.14-0.11,0l-0.75,2.209c-0.02,0.04,0,0.06,0.02,0.06H82.422z"/>
	<path fill="#777C7B" d="M89.953,57.155c0-1.319,0-1.559-0.02-1.829c-0.02-0.27-0.09-0.42-0.4-0.48c-0.06-0.01-0.16-0.02-0.24-0.02
		c-0.07,0-0.11-0.02-0.11-0.06s0.03-0.07,0.12-0.07c0.43,0,1.039,0.03,1.059,0.03c0.09,0,0.77-0.03,1.05-0.03
		c0.56,0,1.169,0.05,1.639,0.38c0.19,0.14,0.6,0.54,0.6,1.219c0,0.55-0.27,1.25-1.06,1.889c0.729,0.899,1.329,1.639,1.839,2.168
		c0.48,0.49,0.78,0.57,1.06,0.61c0.07,0.01,0.28,0.02,0.31,0.02c0.08,0,0.11,0.03,0.11,0.07c0,0.05-0.04,0.07-0.18,0.07h-0.7
		c-0.47,0-0.689-0.03-0.909-0.12c-0.42-0.18-0.72-0.63-1.24-1.299c-0.39-0.48-0.79-1.02-0.959-1.229c-0.04-0.04-0.06-0.06-0.12-0.06
		l-1.029-0.01c-0.04,0-0.05,0.01-0.05,0.05v0.14c0,0.799,0,1.529,0.05,1.889c0.03,0.24,0.06,0.44,0.39,0.48
		c0.1,0.01,0.21,0.02,0.29,0.02c0.09,0,0.13,0.03,0.13,0.06c0,0.05-0.04,0.08-0.14,0.08c-0.52,0-1.08-0.03-1.12-0.03
		c-0.16,0-0.6,0.03-0.869,0.03c-0.1,0-0.14-0.02-0.14-0.08c0-0.03,0.06-0.06,0.12-0.06c0.07,0,0.14,0,0.22-0.02
		c0.17-0.03,0.23-0.14,0.26-0.38c0.05-0.36,0.04-1.179,0.04-1.929V57.155z M90.723,57.865c0,0.05,0.01,0.1,0.05,0.12
		c0.13,0.07,0.529,0.13,0.889,0.13c0.21,0,0.46-0.01,0.67-0.15c0.3-0.19,0.5-0.629,0.5-1.269c0-1.089-0.58-1.689-1.469-1.689
		c-0.25,0-0.459,0.02-0.58,0.05c-0.03,0.01-0.06,0.04-0.06,0.09V57.865z"/>
	<path fill="#777C7B" d="M106.293,54.546c-0.159-0.53-0.289-0.68-0.549-0.78c-0.13-0.05-0.38-0.06-0.45-0.06
		c-0.05,0-0.09-0.01-0.09-0.07c0-0.05,0.06-0.07,0.16-0.07c0.52,0,1.07,0.03,1.179,0.03c0.09,0,0.53-0.03,1.029-0.03
		c0.141,0,0.181,0.03,0.181,0.07c0,0.06-0.05,0.07-0.101,0.07c-0.08,0-0.27,0-0.39,0.06c-0.06,0.03-0.13,0.11-0.13,0.24
		s0.09,0.479,0.19,0.919c0.149,0.64,1.189,4.308,1.349,4.867l2.129-5.727c0.15-0.41,0.19-0.459,0.25-0.459
		c0.07,0,0.13,0.13,0.25,0.47l2.009,5.727c0.29-0.979,1.209-3.878,1.56-5.157c0.1-0.37,0.109-0.51,0.109-0.64
		c0-0.18-0.109-0.3-0.569-0.3c-0.05,0-0.09-0.03-0.09-0.07c0-0.05,0.05-0.07,0.17-0.07c0.51,0,0.929,0.03,1.02,0.03
		c0.069,0,0.499-0.03,0.81-0.03c0.09,0,0.14,0.02,0.14,0.06c0,0.05-0.03,0.08-0.09,0.08c-0.04,0-0.23,0.01-0.34,0.05
		c-0.3,0.11-0.46,0.53-0.649,1.08c-0.44,1.269-1.449,4.447-1.84,5.567c-0.26,0.739-0.31,0.859-0.419,0.859
		c-0.101,0-0.16-0.13-0.3-0.52l-1.97-5.587c-0.369,0.989-1.738,4.647-2.099,5.577c-0.16,0.42-0.229,0.53-0.33,0.53
		c-0.1,0-0.149-0.11-0.35-0.79L106.293,54.546z"/>
	<path fill="#777C7B" d="M121.144,57.155c0-1.319,0-1.559-0.02-1.829c-0.021-0.27-0.08-0.42-0.29-0.46
		c-0.1-0.02-0.17-0.02-0.229-0.03c-0.07-0.01-0.11-0.03-0.11-0.07c0-0.05,0.04-0.07,0.15-0.07c0.31,0,0.879,0.03,0.909,0.03
		c0.04,0,0.619-0.03,0.899-0.03c0.1,0,0.15,0.02,0.15,0.07c0,0.04-0.03,0.06-0.11,0.07c-0.06,0.01-0.11,0.01-0.18,0.02
		c-0.29,0.04-0.32,0.19-0.34,0.48c-0.021,0.27-0.01,0.5-0.01,1.819v1.5c0,0.77-0.011,1.469,0.039,1.829
		c0.04,0.29,0.08,0.4,0.34,0.46c0.131,0.03,0.34,0.04,0.38,0.04c0.09,0.01,0.11,0.03,0.11,0.07s-0.04,0.07-0.14,0.07
		c-0.51,0-1.09-0.03-1.14-0.03c-0.03,0-0.62,0.03-0.899,0.03c-0.09,0-0.16-0.02-0.16-0.07c0-0.04,0.04-0.07,0.13-0.07
		c0.05,0,0.16-0.01,0.24-0.03c0.17-0.04,0.199-0.24,0.229-0.479c0.05-0.36,0.05-1.069,0.05-1.819V57.155z"/>
	<path fill="#777C7B" d="M128.294,54.986c0-0.31,0.03-0.41,0.11-0.41c0.069,0,0.239,0.2,0.31,0.27c0.09,0.1,1.479,1.519,2.878,2.948
		c0.78,0.76,1.779,1.789,2.039,2.029l-0.109-4.158c-0.011-0.54-0.07-0.719-0.34-0.79c-0.17-0.03-0.32-0.04-0.391-0.04
		c-0.1,0-0.119-0.04-0.119-0.08c0-0.05,0.08-0.06,0.18-0.06c0.43,0,0.85,0.03,0.939,0.03c0.1,0,0.41-0.03,0.8-0.03
		c0.109,0,0.14,0.01,0.14,0.06c0,0.04-0.03,0.07-0.09,0.08c-0.061,0.01-0.14,0.01-0.25,0.03c-0.229,0.05-0.3,0.15-0.3,0.75
		l-0.021,5.017c0,0.5-0.02,0.55-0.09,0.55c-0.069,0-0.17-0.07-0.659-0.53c-0.04-0.02-1.43-1.399-2.299-2.249
		c-1.039-1.08-2.039-2.119-2.289-2.379l0.13,3.908c0.021,0.689,0.08,0.949,0.33,1.009c0.16,0.04,0.33,0.04,0.41,0.04
		s0.12,0.03,0.12,0.07c0,0.05-0.051,0.07-0.16,0.07c-0.54,0-0.899-0.03-0.97-0.03s-0.439,0.03-0.869,0.03
		c-0.09,0-0.15-0.01-0.15-0.07c0-0.04,0.04-0.07,0.14-0.07c0.07,0,0.181,0,0.311-0.04c0.22-0.07,0.27-0.34,0.27-1.069
		C128.294,55.106,128.304,56.645,128.294,54.986z"/>
	<path fill="#777C7B" d="M142.403,58.654c0,0.77,0.01,1.479,0.05,1.849c0.03,0.24,0.05,0.38,0.3,0.44c0.12,0.03,0.31,0.04,0.39,0.04
		s0.12,0.03,0.12,0.06c0,0.05-0.03,0.08-0.13,0.08c-0.51,0-1.1-0.03-1.14-0.03s-0.629,0.03-0.889,0.03c-0.11,0-0.15-0.02-0.15-0.07
		c0-0.03,0.03-0.07,0.11-0.07s0.14,0,0.22-0.01c0.189-0.03,0.22-0.15,0.26-0.49c0.04-0.359,0.04-1.079,0.04-1.829v-3.568
		c-0.33,0-0.859,0-1.26,0.01c-0.64,0.01-0.779,0.11-0.919,0.32c-0.09,0.14-0.13,0.26-0.15,0.31c-0.03,0.07-0.05,0.08-0.09,0.08
		s-0.05-0.04-0.05-0.09c-0.01-0.06,0.14-0.72,0.2-0.99c0.029-0.12,0.06-0.16,0.09-0.16c0.069,0,0.26,0.09,0.439,0.11
		c0.35,0.04,0.63,0.05,0.64,0.05h3.278c0.279,0,0.579-0.02,0.72-0.05c0.13-0.03,0.16-0.04,0.189-0.04c0.04,0,0.061,0.05,0.061,0.09
		c0,0.28-0.021,0.939-0.021,1.02c0,0.09-0.04,0.12-0.069,0.12c-0.051,0-0.07-0.04-0.07-0.12c0-0.03,0-0.04-0.01-0.14
		c-0.04-0.4-0.17-0.5-1.18-0.51c-0.38,0-0.689-0.01-0.979-0.01V58.654z"/>
	<path fill="#777C7B" d="M150.024,57.155c0-1.309,0-1.549-0.02-1.819c-0.021-0.28-0.09-0.42-0.38-0.48
		c-0.06-0.01-0.16-0.02-0.24-0.02c-0.069,0-0.13-0.03-0.13-0.06c0-0.06,0.05-0.08,0.15-0.08c0.199,0,0.47,0.02,1.029,0.03
		c0.05,0,1.829,0,2.029-0.01c0.199-0.01,0.31-0.02,0.39-0.05c0.06-0.02,0.069-0.03,0.109-0.03c0.021,0,0.04,0.02,0.04,0.07
		c0,0.06-0.06,0.2-0.08,0.45c-0.01,0.17-0.02,0.33-0.029,0.52c0,0.09-0.021,0.15-0.07,0.15s-0.07-0.04-0.07-0.11
		c-0.01-0.15-0.04-0.25-0.069-0.32c-0.061-0.2-0.15-0.27-0.65-0.3c-0.13-0.01-1.119-0.02-1.139-0.02c-0.03,0-0.05,0.02-0.05,0.08
		v2.269c0,0.06,0.01,0.1,0.06,0.1c0.12,0,1.14-0.01,1.35-0.03c0.229-0.01,0.379-0.04,0.459-0.15c0.04-0.06,0.07-0.08,0.11-0.08
		c0.02,0,0.04,0.01,0.04,0.06c0,0.05-0.04,0.24-0.07,0.53c-0.029,0.28-0.029,0.48-0.04,0.61c-0.01,0.08-0.029,0.11-0.069,0.11
		c-0.051,0-0.061-0.06-0.061-0.13c0-0.06-0.01-0.16-0.029-0.24c-0.04-0.13-0.101-0.27-0.48-0.3c-0.229-0.02-1.039-0.04-1.199-0.04
		c-0.06,0-0.069,0.03-0.069,0.07v0.729c0,0.31-0.011,1.189,0,1.359c0.02,0.37,0.069,0.56,0.279,0.649
		c0.15,0.07,0.39,0.09,0.729,0.09c0.19,0,0.51,0.01,0.76-0.06c0.3-0.09,0.37-0.29,0.45-0.66c0.02-0.1,0.05-0.14,0.09-0.14
		c0.06,0,0.06,0.09,0.06,0.15c0,0.07-0.08,0.7-0.109,0.87c-0.04,0.2-0.11,0.22-0.44,0.22c-0.659,0-0.939-0.02-1.289-0.02
		c-0.35-0.01-0.81-0.03-1.18-0.03c-0.229,0-0.42,0.03-0.659,0.03c-0.09,0-0.14-0.02-0.14-0.07c0-0.04,0.04-0.07,0.09-0.07
		c0.06,0,0.13-0.01,0.199-0.03c0.181-0.04,0.3-0.17,0.32-0.79c0.01-0.34,0.02-0.75,0.02-1.509V57.155z"/>
	<path fill="#777C7B" d="M158.744,57.155c0-1.319,0-1.559-0.021-1.829c-0.02-0.27-0.09-0.42-0.399-0.48
		c-0.061-0.01-0.16-0.02-0.24-0.02c-0.07,0-0.109-0.02-0.109-0.06s0.029-0.07,0.119-0.07c0.43,0,1.04,0.03,1.06,0.03
		c0.09,0,0.77-0.03,1.05-0.03c0.56,0,1.169,0.05,1.639,0.38c0.19,0.14,0.6,0.54,0.6,1.219c0,0.55-0.27,1.25-1.06,1.889
		c0.73,0.899,1.33,1.639,1.84,2.168c0.479,0.49,0.779,0.57,1.059,0.61c0.07,0.01,0.28,0.02,0.311,0.02c0.08,0,0.109,0.03,0.109,0.07
		c0,0.05-0.04,0.07-0.18,0.07h-0.699c-0.47,0-0.69-0.03-0.91-0.12c-0.42-0.18-0.72-0.63-1.239-1.299
		c-0.39-0.48-0.789-1.02-0.959-1.229c-0.04-0.04-0.061-0.06-0.12-0.06l-1.029-0.01c-0.04,0-0.05,0.01-0.05,0.05v0.14
		c0,0.799,0,1.529,0.05,1.889c0.029,0.24,0.06,0.44,0.39,0.48c0.1,0.01,0.21,0.02,0.29,0.02c0.09,0,0.13,0.03,0.13,0.06
		c0,0.05-0.04,0.08-0.141,0.08c-0.52,0-1.079-0.03-1.119-0.03c-0.16,0-0.6,0.03-0.869,0.03c-0.101,0-0.14-0.02-0.14-0.08
		c0-0.03,0.06-0.06,0.119-0.06c0.07,0,0.141,0,0.221-0.02c0.17-0.03,0.229-0.14,0.26-0.38c0.05-0.36,0.04-1.179,0.04-1.929V57.155z
		 M159.513,57.865c0,0.05,0.01,0.1,0.05,0.12c0.13,0.07,0.529,0.13,0.89,0.13c0.21,0,0.459-0.01,0.669-0.15
		c0.3-0.19,0.5-0.629,0.5-1.269c0-1.089-0.58-1.689-1.469-1.689c-0.25,0-0.46,0.02-0.58,0.05c-0.03,0.01-0.06,0.04-0.06,0.09V57.865
		z"/>
	<path fill="#777C7B" d="M175.653,57.155c0-1.319,0-1.559-0.02-1.829c-0.021-0.27-0.08-0.42-0.29-0.46
		c-0.1-0.02-0.17-0.02-0.229-0.03c-0.07-0.01-0.11-0.03-0.11-0.07c0-0.05,0.04-0.07,0.15-0.07c0.31,0,0.879,0.03,0.909,0.03
		c0.04,0,0.619-0.03,0.899-0.03c0.1,0,0.15,0.02,0.15,0.07c0,0.04-0.03,0.06-0.11,0.07c-0.06,0.01-0.11,0.01-0.18,0.02
		c-0.29,0.04-0.32,0.19-0.34,0.48c-0.021,0.27-0.01,0.5-0.01,1.819v1.5c0,0.77-0.011,1.469,0.039,1.829
		c0.04,0.29,0.08,0.4,0.34,0.46c0.131,0.03,0.34,0.04,0.38,0.04c0.09,0.01,0.11,0.03,0.11,0.07s-0.04,0.07-0.14,0.07
		c-0.51,0-1.09-0.03-1.14-0.03c-0.03,0-0.62,0.03-0.899,0.03c-0.09,0-0.16-0.02-0.16-0.07c0-0.04,0.04-0.07,0.13-0.07
		c0.05,0,0.16-0.01,0.24-0.03c0.17-0.04,0.199-0.24,0.229-0.479c0.05-0.36,0.05-1.069,0.05-1.819V57.155z"/>
	<path fill="#777C7B" d="M182.394,61.013c-0.13-0.06-0.13-0.1-0.13-0.34c0-0.459,0.029-0.799,0.039-0.939
		c0.011-0.09,0.03-0.14,0.08-0.14c0.051,0,0.07,0.03,0.07,0.1c0,0.06,0,0.18,0.03,0.3c0.13,0.65,0.72,0.9,1.299,0.9
		c0.83,0,1.229-0.57,1.229-1.07c0-0.569-0.26-0.919-0.989-1.509l-0.4-0.31c-0.959-0.77-1.159-1.299-1.159-1.889
		c0-0.92,0.729-1.54,1.85-1.54c0.35,0,0.589,0.03,0.81,0.08c0.189,0.04,0.27,0.05,0.34,0.05c0.069,0,0.09,0.02,0.09,0.06
		s-0.04,0.39-0.04,0.97c0,0.15-0.021,0.21-0.07,0.21s-0.06-0.04-0.07-0.11c-0.01-0.09-0.029-0.3-0.119-0.47
		c-0.051-0.09-0.28-0.47-1.12-0.47c-0.6,0-1.049,0.36-1.049,0.959c0,0.47,0.239,0.76,1.069,1.39l0.229,0.18
		c1.04,0.799,1.31,1.329,1.31,2.039c0,0.359-0.15,0.999-0.76,1.419c-0.39,0.25-0.869,0.35-1.35,0.35
		C183.164,61.233,182.774,61.183,182.394,61.013z"/>
	<path fill="#777C7B" d="M198.563,60.183c-0.969-0.869-1.209-2.009-1.209-2.958c0-0.67,0.229-1.839,1.119-2.729
		c0.6-0.6,1.51-1.07,3.049-1.07c0.399,0,0.959,0.03,1.449,0.12c0.38,0.07,0.689,0.1,1.06,0.15c0.069,0.01,0.09,0.05,0.09,0.11
		c0,0.08-0.03,0.2-0.05,0.56c-0.021,0.33-0.021,0.879-0.03,1.029s-0.03,0.21-0.09,0.21c-0.07,0-0.08-0.07-0.08-0.21
		c0-0.39-0.16-0.8-0.42-1.02c-0.35-0.3-1.119-0.57-1.999-0.57c-1.329,0-1.949,0.39-2.299,0.73c-0.729,0.699-0.899,1.589-0.899,2.608
		c0,1.909,1.47,3.658,3.608,3.658c0.749,0,1.339-0.09,1.738-0.5c0.21-0.22,0.34-0.66,0.37-0.839c0.021-0.11,0.04-0.15,0.101-0.15
		c0.05,0,0.069,0.07,0.069,0.15c0,0.07-0.12,0.939-0.22,1.279c-0.06,0.19-0.08,0.209-0.26,0.29c-0.399,0.16-1.159,0.23-1.799,0.23
		C200.363,61.263,199.353,60.893,198.563,60.183z"/>
	<path fill="#777C7B" d="M208.814,57.894c0-1.329,1.029-3.318,3.498-3.318c1.979,0,3.488,1.18,3.488,3.188
		c0,1.909-1.409,3.468-3.538,3.468C209.813,61.233,208.814,59.414,208.814,57.894z M214.861,58.015c0-2.009-1.239-3.128-2.608-3.128
		c-1.39,0-2.509,0.859-2.509,2.749c0,1.959,1.089,3.258,2.769,3.258C213.181,60.893,214.861,60.553,214.861,58.015z"/>
	<path fill="#777C7B" d="M228.009,60.023c0.03,0.24,0.09,0.799,0.479,0.89c0.17,0.04,0.37,0.06,0.51,0.07
		c0.04,0,0.13,0.01,0.13,0.06c0,0.05-0.04,0.08-0.149,0.08c-0.18,0-1.26-0.04-1.579-0.06c-0.22-0.02-0.3-0.04-0.3-0.09
		c0-0.03,0.04-0.07,0.09-0.09s0.08-0.14,0.06-0.28l-0.439-4.278l-2.119,4.298c-0.189,0.39-0.22,0.479-0.31,0.479
		c-0.06,0-0.11-0.09-0.3-0.43c-0.16-0.29-0.96-1.889-1.02-1.979c-0.06-0.12-1.039-2.059-1.119-2.269l-0.37,3.848
		c-0.01,0.14-0.01,0.229-0.01,0.379c0,0.11,0.05,0.26,0.25,0.3c0.109,0.02,0.18,0.02,0.279,0.03c0.08,0.01,0.101,0.04,0.101,0.06
		c0,0.07-0.061,0.08-0.17,0.08c-0.32,0-0.75-0.03-0.83-0.03c-0.1,0-0.52,0.03-0.77,0.03c-0.09,0-0.149-0.01-0.149-0.08
		c0-0.02,0.04-0.06,0.13-0.06c0.069,0,0.08,0,0.189-0.01c0.24-0.02,0.33-0.26,0.38-0.66l0.67-5.487c0.02-0.17,0.06-0.25,0.109-0.25
		s0.08,0.03,0.15,0.16l2.679,5.187l2.548-5.177c0.051-0.11,0.09-0.17,0.15-0.17c0.06,0,0.09,0.09,0.1,0.25L228.009,60.023z"/>
	<path fill="#777C7B" d="M234.153,57.155c0-1.319,0-1.559-0.02-1.829c-0.021-0.27-0.08-0.42-0.29-0.46
		c-0.1-0.02-0.17-0.02-0.229-0.03c-0.07-0.01-0.11-0.03-0.11-0.07c0-0.05,0.04-0.07,0.15-0.07c0.31,0,0.879,0.03,0.909,0.03
		c0.04,0,0.619-0.03,0.899-0.03c0.1,0,0.15,0.02,0.15,0.07c0,0.04-0.03,0.06-0.11,0.07c-0.06,0.01-0.11,0.01-0.18,0.02
		c-0.29,0.04-0.32,0.19-0.34,0.48c-0.021,0.27-0.01,0.5-0.01,1.819v1.5c0,0.77-0.011,1.469,0.039,1.829
		c0.04,0.29,0.08,0.4,0.34,0.46c0.131,0.03,0.34,0.04,0.38,0.04c0.09,0.01,0.11,0.03,0.11,0.07s-0.04,0.07-0.14,0.07
		c-0.51,0-1.09-0.03-1.14-0.03c-0.03,0-0.62,0.03-0.899,0.03c-0.09,0-0.16-0.02-0.16-0.07c0-0.04,0.04-0.07,0.13-0.07
		c0.05,0,0.16-0.01,0.24-0.03c0.17-0.04,0.199-0.24,0.229-0.479c0.05-0.36,0.05-1.069,0.05-1.819V57.155z"/>
	<path fill="#777C7B" d="M241.303,54.986c0-0.31,0.03-0.41,0.11-0.41c0.069,0,0.239,0.2,0.31,0.27c0.09,0.1,1.479,1.519,2.878,2.948
		c0.78,0.76,1.779,1.789,2.039,2.029l-0.109-4.158c-0.011-0.54-0.07-0.719-0.34-0.79c-0.17-0.03-0.32-0.04-0.391-0.04
		c-0.1,0-0.119-0.04-0.119-0.08c0-0.05,0.08-0.06,0.18-0.06c0.43,0,0.85,0.03,0.939,0.03c0.1,0,0.41-0.03,0.8-0.03
		c0.109,0,0.14,0.01,0.14,0.06c0,0.04-0.03,0.07-0.09,0.08c-0.061,0.01-0.14,0.01-0.25,0.03c-0.229,0.05-0.3,0.15-0.3,0.75
		l-0.021,5.017c0,0.5-0.02,0.55-0.09,0.55c-0.069,0-0.17-0.07-0.659-0.53c-0.04-0.02-1.43-1.399-2.299-2.249
		c-1.039-1.08-2.039-2.119-2.289-2.379l0.13,3.908c0.021,0.689,0.08,0.949,0.33,1.009c0.16,0.04,0.33,0.04,0.41,0.04
		s0.12,0.03,0.12,0.07c0,0.05-0.051,0.07-0.16,0.07c-0.54,0-0.899-0.03-0.97-0.03s-0.439,0.03-0.869,0.03
		c-0.09,0-0.15-0.01-0.15-0.07c0-0.04,0.04-0.07,0.14-0.07c0.07,0,0.181,0,0.311-0.04c0.22-0.07,0.27-0.34,0.27-1.069
		C241.303,55.106,241.313,56.645,241.303,54.986z"/>
	<path fill="#777C7B" d="M258.43,60.383c0,0.399-0.01,0.41-0.12,0.47c-0.55,0.28-1.35,0.38-1.839,0.38
		c-0.649,0-1.909-0.05-2.929-0.9c-0.539-0.45-1.079-1.289-1.079-2.429c0-1.359,0.689-2.329,1.509-2.818
		c0.77-0.45,1.619-0.51,2.23-0.51c0.64,0,1.069,0.08,1.429,0.14c0.16,0.03,0.55,0.08,0.76,0.09c0.08,0,0.08,0.04,0.08,0.08
		c0,0.12-0.07,0.42-0.07,1.299c0,0.14-0.01,0.18-0.08,0.18c-0.05,0-0.06-0.06-0.069-0.12c0-0.09-0.04-0.4-0.19-0.62
		c-0.229-0.33-0.949-0.7-2.068-0.7c-0.54,0-1.17,0.02-1.839,0.53c-0.51,0.39-0.84,1.149-0.84,2.139c0,1.189,0.649,2.069,0.909,2.319
		c0.66,0.64,1.399,0.929,2.269,0.929c0.28,0,0.72-0.05,0.95-0.17c0.1-0.06,0.17-0.16,0.17-0.3v-1.439c0-0.66-0.051-0.79-0.4-0.84
		c-0.06-0.01-0.16-0.02-0.239-0.02c-0.08,0-0.12-0.04-0.12-0.07c0-0.05,0.04-0.07,0.149-0.07c0.4,0,0.979,0.02,1.02,0.02
		s0.63-0.02,0.899-0.02c0.101,0,0.141,0.02,0.141,0.07c0,0.03-0.03,0.07-0.12,0.07c-0.07,0-0.09,0-0.17,0.01
		c-0.24,0.03-0.3,0.21-0.32,0.5c-0.02,0.29-0.02,0.54-0.02,0.9V60.383z"/>
</g>
</svg>
